<?xml version="1.0" encoding="utf-8"?>
<!-- Generator: Adobe Illustrator 23.0.1, SVG Export Plug-In . SVG Version: 6.00 Build 0)  -->
<svg version="1.1" id="Layer_1" xmlns="http://www.w3.org/2000/svg" xmlns:xlink="http://www.w3.org/1999/xlink" x="0px" y="0px"
	 viewBox="0 0 32 32" style="enable-background:new 0 0 32 32;" xml:space="preserve">
<style type="text/css">
	.st0{fill:none;stroke:#FFFFFF;stroke-width:2;stroke-miterlimit:10;}
	.st1{fill:none;stroke:#FFFFFF;stroke-width:2;stroke-linecap:round;stroke-linejoin:round;stroke-miterlimit:10;}
	.st2{fill:none;stroke:#00BDFF;stroke-miterlimit:10;}
	.st3{fill:none;stroke:#00BDFF;stroke-linecap:round;stroke-linejoin:round;stroke-miterlimit:10;}
</style>
<path class="st0" d="M27.4,15.6c0,6.3-5.1,11.3-11.3,11.3S4.7,21.8,4.7,15.6S9.8,4.2,16,4.2S27.4,9.3,27.4,15.6z"/>
<polyline class="st1" points="20.5,20.4 20.4,10.8 16,14.6 11.5,10.7 11.7,20.2 "/>
<path class="st2" d="M27.4,15.6c0,6.3-5.1,11.3-11.3,11.3S4.7,21.8,4.7,15.6S9.8,4.2,16,4.2S27.4,9.3,27.4,15.6z"/>
<polyline class="st3" points="20.5,20.4 20.4,10.8 16,14.6 11.5,10.7 11.7,20.2 "/>
</svg>
